<svg xmlns="http://www.w3.org/2000/svg" width="39" height="35.896" viewBox="0 0 39 35.896">
  <g id="グループ_54144" data-name="グループ 54144" transform="translate(-1841 -33.25)">
    <path id="線_2" data-name="線 2" d="M39,.75H0V-.75H39Z" transform="translate(1841 45)" fill="#2b2b2b"/>
    <path id="線_4" data-name="線 4" d="M39,.75H0V-.75H39Z" transform="translate(1841 34)" fill="#2b2b2b"/>
    <path id="パス_40815" data-name="パス 40815" d="M3.823-10.664,6.563-2.93l2.725-7.734h2.886V0h-2.2V-2.915l.22-5.032L7.31,0H5.8L2.93-7.939l.22,5.024V0H.952V-10.664ZM18.05.146A3.89,3.89,0,0,1,15.212-.923a3.8,3.8,0,0,1-1.095-2.849v-.205a4.787,4.787,0,0,1,.461-2.135,3.386,3.386,0,0,1,1.307-1.45,3.669,3.669,0,0,1,1.93-.509,3.289,3.289,0,0,1,2.56,1.025,4.167,4.167,0,0,1,.934,2.908v.864H16.263a1.966,1.966,0,0,0,.619,1.245,1.871,1.871,0,0,0,1.307.469A2.285,2.285,0,0,0,20.1-2.446l1.04,1.165A3.178,3.178,0,0,1,19.852-.231,4.229,4.229,0,0,1,18.05.146Zm-.242-6.5a1.326,1.326,0,0,0-1.022.425,2.195,2.195,0,0,0-.5,1.216h2.944v-.168a1.565,1.565,0,0,0-.381-1.088A1.368,1.368,0,0,0,17.808-6.357Zm7.1-1.567.066.916a2.767,2.767,0,0,1,2.278-1.062,2.3,2.3,0,0,1,1.875.74,3.451,3.451,0,0,1,.63,2.212V0H27.641V-5.068a1.373,1.373,0,0,0-.293-.978,1.312,1.312,0,0,0-.974-.3,1.456,1.456,0,0,0-1.34.762V0H22.917V-7.925ZM36.558-.806A2.654,2.654,0,0,1,34.39.146a2.5,2.5,0,0,1-1.945-.732,3.127,3.127,0,0,1-.685-2.146V-7.925h2.117v5.12q0,1.238,1.128,1.238a1.529,1.529,0,0,0,1.479-.747v-5.61h2.124V0H36.616Z" transform="translate(1841 69)" fill="#2b2b2b"/>
  </g>
</svg>
