<svg xmlns="http://www.w3.org/2000/svg" width="60" height="60" viewBox="0 0 60 60">
  <g id="グループ_27534" data-name="グループ 27534" transform="translate(-230 -545)">
    <circle id="楕円形_775" data-name="楕円形 775" cx="30" cy="30" r="30" transform="translate(230 545)" fill="#0099eb"/>
    <g id="グループ_27532" data-name="グループ 27532" transform="translate(5.259 -17.504)">
      <path id="パス_4146" data-name="パス 4146" d="M13.1.75H0V-.75H13.1Z" transform="translate(247.74 592.596)" fill="#fff"/>
      <g id="グループ_27494" data-name="グループ 27494" transform="translate(254.893 586.504)">
        <path id="パス_1948" data-name="パス 1948" d="M0,11.25,5.142,6.092,0,.935.935,0,7.028,6.092.935,12.185Z" transform="translate(0 0)" fill="#fff"/>
        <path id="パス_1948_-_アウトライン" data-name="パス 1948 - アウトライン" d="M.935,12.4-.212,11.25,4.93,6.092-.212.935.935-.212l6.3,6.3ZM.212,11.25l.723.723,5.88-5.88L.935.212.212.935,5.354,6.092Z" transform="translate(0 0)" fill="#fff"/>
      </g>
    </g>
  </g>
</svg>
