<svg xmlns="http://www.w3.org/2000/svg" width="12" height="12" viewBox="0 0 12 12">
  <g id="Icon_feather-external-link" data-name="Icon feather-external-link" transform="translate(-204.605 -13279.727)">
    <path id="パス_27" data-name="パス 27" d="M213.049,13291.682h-6.722a1.725,1.725,0,0,1-1.723-1.719v-6.726a1.724,1.724,0,0,1,1.723-1.723h3.667a.5.5,0,0,1,0,1h-3.667a.723.723,0,0,0-.723.723v6.725a.723.723,0,0,0,.723.72h6.722a.724.724,0,0,0,.723-.724v-3.664a.5.5,0,0,1,1,0v3.664A1.725,1.725,0,0,1,213.049,13291.682Z" transform="translate(0 0.045)" fill="#888"/>
    <path id="パス_28" data-name="パス 28" d="M215.928,13284.394a.5.5,0,0,1-.5-.5v-3.167h-3.167a.5.5,0,0,1,0-1h3.667a.5.5,0,0,1,.5.5v3.667A.5.5,0,0,1,215.928,13284.394Z" transform="translate(0.177)" fill="#888"/>
    <path id="パス_29" data-name="パス 29" d="M209.279,13287.45a.5.5,0,0,1-.354-.854l6.723-6.724a.5.5,0,0,1,.707.707l-6.723,6.724A.5.5,0,0,1,209.279,13287.45Z" transform="translate(0.103)" fill="#888"/>
  </g>
</svg>
